HIERARCHY
ROOT Hips
{
	OFFSET -3.958830 18.904000 13.208200
	CHANNELS 6 Xposition Yposition Zposition Zrotation Yrotation Xrotation 
	JOINT LHipJoint
	{
		OFFSET 0.000000 0.000000 0.000000
		CHANNELS 3 Zrotation Yrotation Xrotation
		JOINT LeftUpLeg
		{
			OFFSET 1.800000 -1.400000 0.085000
			CHANNELS 3 Zrotation Yrotation Xrotation
			JOINT LeftLeg
			{
				OFFSET 2.215000 -6.000000 0.000000
				CHANNELS 3 Zrotation Yrotation Xrotation
				JOINT LeftFoot
				{
					OFFSET 2.500000 -6.900000 0.000000
					CHANNELS 3 Zrotation Yrotation Xrotation
					JOINT LeftToeBase
					{
						OFFSET 0.200000 -0.500000 1.950000
						CHANNELS 3 Zrotation Yrotation Xrotation
						End Site
						{
							OFFSET 0.000000 0.000000 0.000000
						}
					}
				}
			}
		}
	}
	JOINT RHipJoint
	{
		OFFSET 0.000000 0.000000 0.000000
		CHANNELS 3 Zrotation Yrotation Xrotation
		JOINT RightUpLeg
		{
			OFFSET -1.800000 -1.400000 0.085000
			CHANNELS 3 Zrotation Yrotation Xrotation
			JOINT RightLeg
			{
				OFFSET -2.215000 -6.000000 0.000000
				CHANNELS 3 Zrotation Yrotation Xrotation
				JOINT RightFoot
				{
					OFFSET -2.500000 -6.900000 0.000000
					CHANNELS 3 Zrotation Yrotation Xrotation
					JOINT RightToeBase
					{
						OFFSET -0.200000 -0.500000 1.950000
						CHANNELS 3 Zrotation Yrotation Xrotation
						End Site
						{
							OFFSET 0.000000 0.000000 0.000000
						}
					}
				}
			}
		}
	}
	JOINT LowerBack
	{
		OFFSET 0.000000 0.000000 0.000000
		CHANNELS 3 Zrotation Yrotation Xrotation
		JOINT Spine
		{
			OFFSET -0.087000 1.940000 -0.288900
			CHANNELS 3 Zrotation Yrotation Xrotation
			JOINT Spine1
			{
				OFFSET 0.000000 1.950000 0.060000
				CHANNELS 3 Zrotation Yrotation Xrotation
				JOINT Neck
				{
					OFFSET 0.000000 0.000000 0.000000
					CHANNELS 3 Zrotation Yrotation Xrotation
					JOINT Neck1
					{
						OFFSET 0.000000 1.600000 0.340000
						CHANNELS 3 Zrotation Yrotation Xrotation
						JOINT Head
						{
							OFFSET 0.000000 1.667000 -0.240000
							CHANNELS 3 Zrotation Yrotation Xrotation
							End Site
							{
								OFFSET 0.000000 0.000000 0.000000
							}
						}
					}
				}
				JOINT LeftShoulder
				{
					OFFSET 0.000000 0.000000 0.000000
					CHANNELS 3 Zrotation Yrotation Xrotation
					JOINT LeftArm
					{
						OFFSET 2.700000 1.550000 -0.730000
						CHANNELS 3 Zrotation Yrotation Xrotation
						JOINT LeftForeArm
						{
							OFFSET 5.450000 0.000000 0.000000
							CHANNELS 3 Zrotation Yrotation Xrotation
							JOINT LeftHand
							{
								OFFSET 3.450000 0.000000 0.000000
								CHANNELS 3 Zrotation Yrotation Xrotation
								JOINT LeftHandIndex1
								{
									OFFSET 0.750000 0.000000 0.000000
									CHANNELS 3 Zrotation Yrotation Xrotation
									End Site
									{
										OFFSET 0.000000 0.000000 0.000000
									}
								}
							}
						}
					}
				}
				JOINT RightShoulder
				{
					OFFSET 0.000000 0.000000 0.000000
					CHANNELS 3 Zrotation Yrotation Xrotation
					JOINT RightArm
					{
						OFFSET -2.700000 1.550000 -0.730000
						CHANNELS 3 Zrotation Yrotation Xrotation
						JOINT RightForeArm
						{
							OFFSET -5.450000 0.000000 0.000000
							CHANNELS 3 Zrotation Yrotation Xrotation
							JOINT RightHand
							{
								OFFSET -3.450000 0.000000 0.000000
								CHANNELS 3 Zrotation Yrotation Xrotation
								JOINT RightHandIndex1
								{
									OFFSET -0.750000 0.000000 0.000000
									CHANNELS 3 Zrotation Yrotation Xrotation
									End Site
									{
										OFFSET 0.000000 0.000000 0.000000
									}
								}
							}
						}
					}
				}
			}
		}
	}
}
MOTION
Frames: 6
Frame Time: 0.016667
-0.668240 13.693490 0.499650 -53.243052 -4.406815 -25.739589 -15.418070 12.914371 3.089992 -2.913607 -3.088011 -23.384789 1.271239 12.097193 54.071264 0.690307 9.522411 1.136019 0.200880 -0.049550 0.417730 18.163856 -8.934077 4.520532 -6.709537 16.482809 -23.512351 24.430919 -24.022996 61.979337 -2.308663 -11.955376 0.463705 -0.088210 0.037170 0.065240 -3.037647 -3.046064 -8.817430 1.968414 4.115543 50.177362 -7.651183 8.193183 16.860205 4.824928 3.642484 -19.929934 3.565678 5.846952 52.131228 6.727900 7.562350 -5.554530 -17.187355 -25.564641 10.572473 -15.640145 -0.834883 -1.209028 11.385612 -0.809033 -0.750720 -3.759472 2.624930 0.714680 -0.088240 0.193330 -0.031370 6.497189 26.667543 14.398423 -0.295461 -5.579595 -8.124301 -20.921087 17.878809 -2.739924 2.404298 -1.257345 -0.261630 0.188600 0.006880 -0.257380 
-0.627090 13.645670 0.522260 -55.110804 -2.253797 -26.656762 -15.372693 12.766146 3.129419 -3.634043 -4.082483 -23.327757 3.848042 10.464286 56.039488 0.700779 9.588061 1.121573 0.227130 -0.039840 0.452440 18.208817 -8.884192 4.611520 -9.476587 15.510941 -24.544504 30.331798 -26.664998 58.026246 -2.364696 -12.054265 0.412314 -0.080480 0.002520 0.083540 -3.189584 -2.924311 -8.876444 4.823673 1.242644 50.405140 -8.928988 6.237597 17.348651 5.525814 4.144767 -19.817264 4.616420 5.020429 52.205079 4.274250 7.695240 -5.495180 -17.461420 -25.689924 10.700802 -15.355590 -0.829142 -0.996457 10.948466 -0.061182 -0.655821 -3.753262 2.646853 0.714430 -0.092950 0.202910 -0.029230 5.270757 25.560475 14.188162 -2.299726 -4.427674 -6.912433 -19.734427 15.169892 -2.152714 2.456427 -1.220830 -0.248620 0.155880 -0.013730 -0.269200 
-0.605860 13.641250 0.553530 -55.699866 0.048274 -28.064267 -15.464849 12.678427 3.188223 -2.700744 -4.975723 -23.304731 2.943291 11.433573 58.721270 0.869461 10.189271 0.914253 0.253510 0.020600 0.455660 18.146225 -8.500270 4.739348 -13.999448 14.616975 -26.066926 38.673770 -29.554045 52.920408 -2.432304 -12.077425 0.386123 -0.063260 -0.029350 0.102030 -2.990287 -3.452380 -9.007222 4.170346 0.816323 50.616128 -7.488592 5.092442 17.540943 5.596921 4.266865 -19.372411 4.855813 4.813509 52.439084 3.853230 7.767180 -6.666790 -17.202776 -25.539027 10.753663 -16.606399 -1.764978 -0.573465 10.287712 0.875590 -0.518119 -3.745938 2.678418 0.691760 -0.103170 0.231820 -0.032620 4.905606 24.964794 13.949405 -5.273712 -3.977146 -6.439411 -20.410959 11.854575 -1.909648 2.557666 -1.188179 -0.201290 0.132220 -0.024220 -0.252290 
-0.585790 13.659950 0.601190 -54.447596 0.888595 -30.357889 -15.625631 12.685740 3.258364 -2.232153 -5.451727 -23.062330 1.336671 13.421400 61.467804 1.041236 11.016926 0.670269 0.244970 -0.007780 0.485960 18.015856 -8.062437 4.830977 -19.049032 13.870234 -26.345311 47.290902 -30.705796 46.725891 -2.417500 -11.748206 0.460979 -0.074920 -0.041920 0.099740 -2.581672 -4.211101 -9.138218 0.644098 2.735335 51.436291 -5.102327 5.219168 16.860212 5.518950 5.058708 -19.420425 6.587536 3.881034 54.078818 3.004680 7.865130 -7.178800 -17.507413 -26.013367 11.381544 -18.068581 -0.880769 -0.554202 10.387134 1.545579 -0.445447 -3.729248 2.636225 0.742110 -0.115020 0.254050 -0.046100 5.326903 25.640934 13.582185 -8.990065 -3.703300 -7.244277 -22.060233 10.840426 -2.024082 2.605997 -1.158919 -0.228170 0.156470 -0.016560 -0.278670 
-0.549430 13.651680 0.678420 -53.612404 1.329623 -32.962698 -15.704196 12.739454 3.182063 -2.491388 -5.389667 -22.582009 3.011250 13.197968 63.833522 1.115665 11.336652 0.565166 0.300270 0.035350 0.568340 17.954662 -7.837024 4.945568 -22.890204 13.432722 -25.822615 53.723208 -32.302973 43.631855 -2.503535 -11.704061 0.451212 -0.056800 -0.100060 0.112070 -2.382457 -4.615102 -9.174417 -1.177858 3.788620 52.056310 -3.964853 5.197618 16.629095 5.545617 5.835841 -19.265305 8.540699 3.192382 55.773288 2.865280 8.215360 -8.868770 -17.458264 -26.425346 12.079615 -19.358852 0.212592 -0.579699 9.769986 1.140128 -0.444160 -3.655877 2.636986 0.793670 -0.156320 0.313400 -0.052300 5.156669 25.983540 12.756200 -11.921483 -2.482538 -8.335227 -24.178830 10.648511 -2.378627 2.644971 -1.165875 -0.217040 0.155540 -0.050000 -0.304190 
-0.508440 13.571290 0.769350 -54.283937 -0.162538 -34.820149 -15.619877 12.445152 3.248962 -1.387364 -5.419835 -24.100523 1.980902 15.199411 67.268716 1.363239 12.157722 0.342868 0.356460 0.115770 0.599360 18.053810 -7.795464 5.083416 -23.854937 14.027308 -26.461043 58.635752 -34.074391 42.242457 -2.608444 -11.798110 0.460951 -0.027600 -0.125440 0.096660 -2.640474 -4.133856 -9.300559 2.237997 1.763690 52.004295 -6.045684 4.704136 16.144169 6.332477 5.437805 -19.011470 7.951257 3.527821 57.595787 1.870270 8.241240 -8.261750 -18.056665 -26.344314 12.516067 -20.347671 1.419032 -0.630305 9.290179 0.867878 -0.362563 -3.580384 2.662617 0.768670 -0.170500 0.338030 -0.014010 4.285816 26.199530 11.601412 -14.354721 -0.194564 -9.393242 -26.503436 10.495267 -2.869160 2.694702 -1.214443 -0.183870 0.162320 -0.110830 -0.281820 
